<svg width="24" height="19" viewBox="0 0 24 19" fill="none" xmlns="http://www.w3.org/2000/svg">
<path d="M10.66 2.24L6.4 10.16L3.94 10.82C4.22 10.3 4.54 9.86 4.9 9.5C5.3 9.14 5.72 8.96 6.16 8.96C7.2 8.96 8.14 9.4 8.98 10.28C9.86 11.16 10.3 12.26 10.3 13.58C10.3 14.98 9.82 16.2 8.86 17.24C7.9 18.24 6.72 18.74 5.32 18.74C3.96 18.74 2.78 18.24 1.78 17.24C0.78 16.24 0.28 15.02 0.28 13.58C0.28 13.02 0.4 12.36 0.64 11.6C0.88 10.8 1.32 9.8 1.96 8.6L6.58 0.0799968L10.66 2.24ZM23.56 2.24L19.3 10.16L16.84 10.82C17.12 10.3 17.44 9.86 17.8 9.5C18.16 9.14 18.58 8.96 19.06 8.96C20.1 8.96 21.04 9.4 21.88 10.28C22.76 11.16 23.2 12.26 23.2 13.58C23.2 14.98 22.7 16.2 21.7 17.24C20.74 18.24 19.56 18.74 18.16 18.74C16.84 18.74 15.68 18.24 14.68 17.24C13.68 16.24 13.18 15.02 13.18 13.58C13.18 13.02 13.3 12.36 13.54 11.6C13.78 10.8 14.22 9.8 14.86 8.6L19.48 0.0799968L23.56 2.24Z" fill="#FFB91F"/>
</svg>
